<svg width="148" height="36" viewBox="0 0 148 36" fill="none" xmlns="http://www.w3.org/2000/svg">
<path d="M4.34239 35.027H4.33294L4.3235 35.0274C2.23735 35.1063 0.642265 33.6974 0.547485 32.1143V32.0414V4.15653C0.547485 2.59782 2.11907 1.17092 4.23763 1.17092H4.34239H143.56C145.696 1.17092 147.355 2.61184 147.355 4.15653V32.0272C147.261 33.6031 145.67 35.027 143.455 35.027H4.34239Z" fill="black" stroke="white"/>
<path d="M32.4164 17.9247C32.4164 14.9619 35.3495 13.5677 35.4543 13.4806C34.302 11.9992 32.3117 11.1278 30.2166 11.1278C28.1215 10.9535 25.9217 12.1735 24.8741 12.1735C23.7218 12.1735 22.0458 11.1278 20.1602 11.1278C17.7509 11.1278 15.5511 12.2606 14.3988 14.0905C11.8847 17.6633 13.7702 22.9789 16.1796 25.8545C17.3319 27.2487 18.7984 28.8173 20.5792 28.8173C22.36 28.7301 23.0933 27.8587 25.1884 27.8587C27.3882 27.8587 28.0167 28.8173 29.7976 28.7301C31.6831 28.7301 32.9402 27.3359 34.0925 25.8545C35.4543 24.1988 36.0828 22.6303 36.0828 22.5432C36.0828 22.5432 32.4164 21.4103 32.4164 17.9247ZM28.8548 9.21069C29.9023 8.16501 30.4261 6.85791 30.3213 5.46366C28.9595 5.5508 27.1787 6.24792 26.1312 7.20647C25.1884 8.07787 24.4551 9.47211 24.6646 10.7792C26.2359 10.9535 27.8072 10.1692 28.8548 9.21069Z" fill="white"/>
<path d="M58.3954 28.6427H55.8813L54.5195 25.07H49.7008L48.339 28.6427H45.9297L50.7484 16.4431H53.6815L58.3954 28.6427ZM54.1005 23.5015L52.8434 20.3644L52.1102 18.0988L51.3769 20.3644L50.1198 23.5015C50.1198 23.5015 54.1005 23.5015 54.1005 23.5015ZM70.6516 24.1114C70.7563 25.4185 70.2326 26.7256 69.185 27.6842C68.347 28.4684 67.1947 28.817 65.9377 28.817C64.5759 28.817 63.5283 28.3813 62.8998 27.597V32.2155H60.4905V22.7172L60.3857 19.8416H62.4808L62.5855 21.2358C63.3188 20.1901 64.6806 19.5801 66.1472 19.6673C67.4042 19.6673 68.4517 20.103 69.2898 20.8872C70.2326 21.7586 70.7563 22.8915 70.6516 24.1114ZM68.2422 24.1986C68.2422 23.3272 68.0327 22.6301 67.509 22.1072C66.9852 21.4972 66.3567 21.2358 65.4139 21.2358C64.7854 21.2358 64.2616 21.4101 63.8426 21.6715C63.3188 22.0201 63.1093 22.3686 62.8998 22.8915L62.795 23.5015V24.9828C62.795 25.5928 63.0045 26.1157 63.5283 26.6385C64.0521 27.0742 64.5759 27.3356 65.4139 27.3356C66.2519 27.3356 66.9852 27.0742 67.509 26.4642C68.0327 25.7671 68.2422 24.9828 68.2422 24.1986ZM82.803 24.1114C82.9078 25.4185 82.384 26.7256 81.3364 27.6842C80.4984 28.4684 79.3461 28.817 78.0891 28.817C76.7273 28.817 75.6797 28.3813 75.0512 27.597V32.2155H72.6419V22.7172L72.5371 19.8416H74.6322L74.8417 21.2358C75.575 20.1901 76.9368 19.5801 78.4033 19.6673C79.6604 19.6673 80.7079 20.103 81.546 20.8872C82.384 21.6715 82.803 22.8043 82.803 24.1114ZM80.3937 24.1986C80.3937 23.3272 80.1842 22.6301 79.6604 22.1072C79.1366 21.4972 78.5081 21.2358 77.5653 21.2358C76.9368 21.2358 76.413 21.4101 75.994 21.6715C75.4702 22.0201 75.2607 22.3686 75.0512 22.8915L74.9465 23.5015V24.9828C74.9465 25.5928 75.156 26.1157 75.6797 26.6385C76.2035 27.0742 76.7273 27.3356 77.5653 27.3356C78.4033 27.3356 79.1366 27.0742 79.6604 26.4642C80.1842 25.8542 80.3937 25.1571 80.3937 24.1986ZM96.5257 25.1571C96.5257 26.2028 96.1067 27.0742 95.2687 27.6842C94.3259 28.3813 92.9641 28.7299 91.2881 28.7299C89.7167 28.7299 88.4597 28.4684 87.5169 27.9456L88.0407 26.2899C89.0882 26.8128 90.2405 27.0742 91.4976 27.0742C92.3356 27.0742 93.0689 26.8999 93.5926 26.5514C94.1164 26.2028 94.3259 25.7671 94.3259 25.2443C94.3259 24.7214 94.1164 24.3729 93.6974 24.0243C93.2784 23.6757 92.6499 23.4143 91.7071 23.0658C89.0882 22.2815 87.8312 21.1487 87.8312 19.5801C87.8312 18.6216 88.2502 17.7502 89.193 17.1402C90.1358 16.5302 91.2881 16.1817 92.7546 16.1817C94.1164 16.1817 95.1639 16.356 96.1067 16.7917L95.4782 18.3602C94.6402 18.0116 93.5926 17.8373 92.6499 17.8373C91.8118 17.8373 91.1833 18.0116 90.6595 18.3602C90.2405 18.6216 90.031 19.0573 90.031 19.493C90.031 20.0158 90.2405 20.3644 90.6595 20.713L92.7546 21.6715C93.8021 22.0201 94.7449 22.4558 95.583 23.1529C96.2115 23.6757 96.5257 24.3729 96.5257 25.1571ZM104.278 21.3229H101.659V25.5928C101.659 26.6385 102.078 27.2485 103.02 27.2485L104.068 27.1613L104.173 28.6427C103.754 28.817 103.125 28.817 102.287 28.817C101.344 28.817 100.611 28.5556 100.087 28.1199C99.5636 27.6842 99.2493 26.8999 99.2493 25.7671V21.3229H97.8875V19.8416H99.4588V18.273L101.763 17.6631V19.8416H104.382V21.3229H104.278ZM116.01 24.1114C116.01 25.4185 115.591 26.5514 114.648 27.4228C113.705 28.2942 112.344 28.7299 110.772 28.7299C109.201 28.7299 107.944 28.2942 107.001 27.4228C106.058 26.5514 105.639 25.5057 105.639 24.1986C105.639 22.8043 106.163 21.7586 107.106 20.8872C108.049 20.0158 109.306 19.5801 110.982 19.5801C112.553 19.5801 113.81 20.0158 114.753 20.8872C115.591 21.7586 116.01 22.8043 116.01 24.1114ZM113.601 24.1986C113.601 23.4143 113.391 22.7172 112.972 22.1072C112.448 21.4101 111.82 21.0615 110.877 21.0615C109.934 21.0615 109.201 21.4101 108.677 22.1072C108.258 22.7172 108.049 23.4143 108.049 24.1986C108.049 24.9828 108.258 25.68 108.677 26.2899C109.201 26.9871 109.934 27.3356 110.772 27.3356C111.715 27.3356 112.344 26.9871 112.867 26.2899C113.391 25.7671 113.601 24.9828 113.601 24.1986ZM123.762 21.5844L123.028 21.4972C122.295 21.4972 121.562 21.7586 121.143 22.2815C120.724 22.7172 120.514 23.3272 120.514 24.0243V28.6427H118.105V22.6301L118 19.8416H120.095L120.2 21.4972H120.305C120.514 20.9744 120.933 20.4515 121.457 20.103C121.981 19.7544 122.505 19.6673 123.133 19.6673H123.762C123.762 19.6673 123.762 21.5844 123.762 21.5844ZM134.342 23.85L134.237 24.7214H127.114C127.114 25.5057 127.428 26.2028 128.161 26.7256C128.79 27.1613 129.523 27.3356 130.466 27.3356C131.513 27.3356 132.456 27.1613 133.294 26.8999L133.713 28.2942C132.561 28.6427 131.409 28.817 130.152 28.817C128.685 28.9041 127.323 28.4684 126.276 27.597C125.333 26.7256 124.809 25.5928 124.914 24.3729C124.914 23.0658 125.333 21.9329 126.276 21.0615C127.114 20.103 128.476 19.6673 129.942 19.6673C131.513 19.6673 132.666 20.103 133.399 21.0615C134.028 21.7586 134.342 22.7172 134.342 23.85ZM132.037 23.3272C132.037 22.8043 131.933 22.2815 131.618 21.8458C131.199 21.3229 130.466 21.0615 129.733 21.0615C128.999 21.0615 128.371 21.3229 127.847 21.8458C127.428 22.2815 127.219 22.8043 127.114 23.3272H132.037Z" fill="white"/>
<path d="M53.3671 8.94904C53.3671 9.99473 52.9481 10.8661 52.2148 11.389C51.4816 11.9118 50.434 12.1732 49.0722 12.1732L47.3962 12.0861V6.16055L49.3865 6.07341C50.6435 6.07341 51.5863 6.33483 52.2148 6.77054C53.0529 7.29338 53.3671 7.9905 53.3671 8.94904ZM52.1101 8.94904C52.1101 8.25192 51.9006 7.72908 51.4816 7.38052C51.0626 7.03196 50.3293 6.85768 49.4913 6.85768L48.5485 6.94482V11.389H49.3865C50.2245 11.389 50.9578 11.2147 51.4816 10.779C51.9006 10.3433 52.1101 9.7333 52.1101 8.94904ZM59.8619 9.90759C59.8619 10.6047 59.6524 11.1275 59.1286 11.5633C58.6048 11.999 57.9763 12.2604 57.243 12.2604C56.5098 12.2604 55.8812 12.0861 55.4622 11.6504C54.9384 11.1275 54.7289 10.6047 54.7289 9.99473C54.7289 9.2976 54.9384 8.77476 55.4622 8.33906C55.8812 7.90336 56.5098 7.72908 57.3478 7.72908C58.0811 7.72908 58.7096 7.90336 59.2334 8.33906C59.6524 8.68762 59.8619 9.21046 59.8619 9.90759ZM58.6048 9.90759C58.6048 9.47188 58.5001 9.21046 58.2906 8.8619C58.0811 8.51334 57.662 8.33906 57.243 8.33906C56.824 8.33906 56.405 8.51334 56.1955 8.8619L55.8812 9.90759C55.8812 10.3433 55.986 10.6047 56.1955 10.9533C56.405 11.3018 56.824 11.4761 57.243 11.4761C57.662 11.4761 58.0811 11.3018 58.2906 10.9533C58.5001 10.6918 58.6048 10.3433 58.6048 9.90759ZM68.5564 7.81622L66.8804 12.0861H65.8328L65.2043 10.2561L64.7853 8.8619L64.3663 10.2561L63.633 12.0861H62.5855L61.0142 7.81622H62.1665L62.795 9.90759L63.1092 11.3018L63.5283 9.90759L64.2615 7.81622H65.2043L65.9376 9.82044L66.3566 11.2147L66.6709 9.82044L67.2994 7.81622C67.2994 7.81622 68.5564 7.81622 68.5564 7.81622ZM74.5274 12.0861H73.3751V9.64616C73.3751 8.8619 73.0608 8.51334 72.3276 8.51334C72.0133 8.51334 71.699 8.60048 71.4895 8.8619C71.28 9.03618 71.1753 9.2976 71.1753 9.55902V12.0861H70.023V9.03618V7.81622H71.0705L71.1753 8.51334L71.8038 7.9905C72.1181 7.81622 72.4323 7.72908 72.8513 7.72908C73.3751 7.72908 73.7941 7.81622 74.1084 8.07764C74.5274 8.4262 74.7369 8.8619 74.7369 9.47188V12.0861H74.5274ZM77.7748 12.0861H76.6225V5.81199H77.7748V12.0861ZM84.5838 9.90759C84.5838 10.6047 84.3742 11.1275 83.8505 11.5633C83.3267 11.999 82.6982 12.2604 81.9649 12.2604C81.2316 12.2604 80.6031 12.0861 80.1841 11.6504C79.7651 11.2147 79.4508 10.6918 79.4508 10.0819C79.4508 9.38474 79.6603 8.8619 80.1841 8.4262C80.6031 7.9905 81.3364 7.81622 82.0697 7.81622C82.8029 7.81622 83.4315 7.9905 83.9552 8.4262C84.3742 8.68762 84.5838 9.21046 84.5838 9.90759ZM83.4315 9.90759C83.4315 9.47188 83.3267 9.21046 83.1172 8.8619C82.9077 8.51334 82.4887 8.33906 82.0697 8.33906C81.6507 8.33906 81.2316 8.51334 81.0221 8.8619C80.8126 9.12332 80.7079 9.47188 80.7079 9.90759C80.7079 10.3433 80.8126 10.6047 81.0221 10.9533C81.2316 11.3018 81.6507 11.4761 82.0697 11.4761C82.4887 11.4761 82.9077 11.3018 83.1172 10.9533C83.3267 10.6918 83.4315 10.3433 83.4315 9.90759ZM90.2405 12.0861H89.1929L89.0882 11.5633C88.7739 11.999 88.2501 12.1732 87.5169 12.1732C86.9931 12.1732 86.5741 12.0861 86.3646 11.8247C86.0503 11.5633 85.9456 11.3018 85.9456 10.9533C85.9456 10.4304 86.2598 9.99473 86.7836 9.7333C87.4121 9.38474 88.2501 9.2976 88.9834 9.2976V9.21046C88.9834 8.60048 88.6692 8.33906 87.9359 8.33906C87.4121 8.33906 86.9931 8.4262 86.5741 8.68762L86.3646 8.07764C86.8883 7.81622 87.5169 7.72908 88.1454 7.72908C89.5072 7.72908 90.2405 8.33906 90.2405 9.47188V11.0404V12.0861ZM88.9834 10.6047V9.90759C87.7264 9.90759 87.0978 10.169 87.0978 10.779L87.3074 11.3018L87.9359 11.4761L88.6691 11.3018L89.0882 10.779C89.0882 10.779 88.9834 10.6047 88.9834 10.6047ZM96.8399 12.0861H95.7924L95.6877 11.389C95.3734 11.9118 94.8496 12.1732 94.0116 12.1732C93.3831 12.1732 92.8593 11.999 92.4403 11.5633C92.0213 11.1275 91.8118 10.6047 91.8118 9.99473C91.8118 9.2976 92.0213 8.77476 92.4403 8.33906C92.8593 7.90336 93.3831 7.72908 94.0116 7.72908C94.7449 7.72908 95.1639 7.90336 95.4781 8.33906V5.81199H96.6304V10.9533C96.6304 10.9533 96.8399 12.0861 96.8399 12.0861ZM95.5829 10.2561V9.55902V9.2976L95.1639 8.68762C94.9544 8.51334 94.7449 8.4262 94.4306 8.4262C94.0116 8.4262 93.6973 8.60048 93.3831 8.8619C93.1736 9.12332 92.964 9.47188 92.964 9.99473C92.964 10.4304 93.0688 10.779 93.2783 11.0404C93.4878 11.3018 93.9068 11.4761 94.3259 11.4761C94.7449 11.4761 95.0591 11.389 95.2686 11.1275C95.4781 10.8661 95.5829 10.6047 95.5829 10.2561ZM106.792 9.90759C106.792 10.6047 106.582 11.1275 106.058 11.5633C105.534 11.999 104.906 12.2604 104.173 12.2604C103.439 12.2604 102.811 12.0861 102.392 11.6504C101.973 11.2147 101.659 10.6918 101.659 10.0819C101.659 9.38474 101.868 8.8619 102.392 8.4262C102.811 7.90336 103.439 7.72908 104.277 7.72908C105.011 7.72908 105.639 7.90336 106.163 8.33906C106.477 8.68762 106.792 9.21046 106.792 9.90759ZM105.534 9.90759C105.534 9.47188 105.43 9.21046 105.22 8.8619C105.011 8.51334 104.592 8.33906 104.173 8.33906C103.754 8.33906 103.335 8.51334 103.125 8.8619C102.916 9.12332 102.811 9.47188 102.811 9.90759C102.811 10.3433 102.916 10.6047 103.125 10.9533C103.335 11.3018 103.754 11.4761 104.173 11.4761C104.592 11.4761 105.011 11.3018 105.22 10.9533C105.43 10.6918 105.534 10.3433 105.534 9.90759ZM112.972 12.0861H111.82V9.64616C111.82 8.8619 111.505 8.51334 110.772 8.51334C110.458 8.51334 110.144 8.60048 109.934 8.8619C109.725 9.03618 109.62 9.2976 109.62 9.55902V12.0861H108.468V9.03618V7.81622H109.515V8.4262L110.144 7.90336C110.458 7.72908 110.772 7.64194 111.191 7.64194C111.715 7.64194 112.134 7.72908 112.448 7.9905C112.867 8.33906 113.077 8.77476 113.077 9.38474L112.972 12.0861ZM120.829 8.51334H119.571V10.6047C119.571 11.1275 119.781 11.389 120.2 11.389L120.724 11.3018V11.999L119.781 12.0861C119.362 12.0861 118.943 11.999 118.733 11.7375C118.524 11.4761 118.314 11.1275 118.314 10.6047V8.51334H117.581V7.81622H118.314V6.94482L119.467 6.6834V7.72908H120.724C120.724 7.72908 120.829 8.51334 120.829 8.51334ZM126.904 12.0861H125.752V9.64616C125.752 8.8619 125.438 8.51334 124.704 8.51334C124.181 8.51334 123.762 8.77476 123.552 9.21046L123.447 9.55902V12.1732H122.295V5.81199H123.447V8.4262C123.762 7.9905 124.285 7.72908 125.019 7.72908C125.542 7.72908 125.857 7.81622 126.171 8.07764C126.59 8.4262 126.8 8.8619 126.8 9.55902L126.904 12.0861ZM133.294 9.7333V10.169H129.837C129.837 10.6047 130.047 10.9533 130.361 11.1275C130.675 11.3018 130.99 11.389 131.513 11.389L132.875 11.2147L133.085 11.9118C132.561 12.0861 132.037 12.1732 131.304 12.1732C130.466 12.1732 129.837 11.999 129.418 11.5633C128.999 11.1275 128.685 10.6047 128.685 9.99473C128.685 9.38474 128.895 8.77476 129.314 8.33906C129.733 7.90336 130.361 7.64194 131.094 7.64194C131.828 7.64194 132.456 7.90336 132.77 8.33906C133.085 8.77476 133.294 9.21046 133.294 9.7333ZM132.142 9.47188L131.932 8.77476C131.723 8.51334 131.409 8.33906 130.99 8.33906C130.571 8.33906 130.256 8.4262 130.047 8.68762C129.837 8.8619 129.733 9.12332 129.733 9.47188H132.142Z" fill="white"/>
</svg>
