<svg width="151" height="37" viewBox="0 0 151 37" fill="none" xmlns="http://www.w3.org/2000/svg">
<path d="M6.12452 35.75H6.11709L6.10967 35.7503C3.35179 35.8322 1.12555 33.9561 1.02802 31.8469V31.7702V4.72633C1.12523 2.53091 3.24726 0.735809 6.12452 0.735809H144.981C147.858 0.735809 149.98 2.53074 150.078 4.72603V31.7598C149.98 33.9447 147.765 35.75 144.876 35.75H6.12452Z" fill="black" stroke="white"/>
<path d="M54.2756 10.3373C54.2756 11.04 54.0644 11.6549 53.5364 12.0941C52.9029 12.6211 52.1637 12.8846 51.2134 12.8846C50.263 12.8846 49.5239 12.6211 48.8903 12.0941C48.2567 11.567 47.9399 10.9521 47.9399 10.1616C47.9399 9.37103 48.2567 8.75615 48.8903 8.22912C49.5239 7.70208 50.263 7.43856 51.2134 7.43856C51.6357 7.43856 52.0581 7.5264 52.4805 7.70208C52.9029 7.87776 53.2197 8.05344 53.4308 8.31695L52.9029 8.75615C52.4805 8.31695 51.9525 8.14128 51.2134 8.14128C50.5798 8.14128 49.9462 8.31695 49.5239 8.75615C48.9959 9.10751 48.7847 9.63455 48.7847 10.2494C48.7847 10.8643 48.9959 11.3913 49.5239 11.7427C50.0518 12.0941 50.5798 12.3576 51.2134 12.3576C51.9525 12.3576 52.4805 12.1819 53.0085 11.7427C53.3253 11.4792 53.5364 11.1278 53.5364 10.6886H51.2134V9.98591H54.2756V10.3373V10.3373ZM59.0274 8.14128H56.1763V9.81023H58.8162V10.4251H56.1763V12.0941H59.0274V12.7968H55.4371V7.5264H59.1329L59.0274 8.14128ZM62.4064 12.7089H61.5616V8.14128H59.7665V7.5264H64.0959V8.14128H62.3008V12.7089H62.4064ZM67.2637 12.7089V7.5264H68.1085V12.7089H67.2637ZM71.5931 12.7089H70.7483V8.14128H68.9532V7.5264H73.177V8.14128H71.3819L71.5931 12.7089ZM81.519 12.0062C80.8854 12.5333 80.1462 12.7968 79.1959 12.7968C78.2455 12.7968 77.5064 12.5333 76.8728 12.0062C76.2392 11.4792 75.9225 10.8643 75.9225 10.0737C75.9225 9.28319 76.2392 8.66831 76.8728 8.14128C77.5064 7.61424 78.2455 7.35072 79.1959 7.35072C80.1462 7.35072 80.8854 7.61424 81.519 8.14128C82.1525 8.66831 82.4693 9.28319 82.4693 10.0737C82.4693 10.8643 82.1525 11.567 81.519 12.0062ZM77.5064 11.6549C77.9288 12.0062 78.5623 12.2697 79.1959 12.2697C79.8294 12.2697 80.463 12.0941 80.8854 11.6549C81.3078 11.3035 81.6246 10.7765 81.6246 10.1616C81.6246 9.54671 81.4134 9.01967 80.8854 8.66831C80.463 8.31696 79.8294 8.05344 79.1959 8.05344C78.5623 8.05344 77.9288 8.22912 77.5064 8.66831C77.084 9.01967 76.7672 9.54671 76.7672 10.1616C76.7672 10.7765 76.9784 11.3035 77.5064 11.6549ZM83.5252 12.7089V7.5264H84.4756L87.5378 11.567V7.5264H88.3826V12.7089H87.5378L84.2644 8.49263V12.7089H83.5252V12.7089Z" fill="white"/>
<path d="M54.3812 10.3377C54.3812 10.689 54.2756 11.0404 54.17 11.3039C54.0644 11.5674 53.8532 11.9188 53.5364 12.0945C53.2197 12.358 52.9029 12.5337 52.4805 12.7093C52.0581 12.885 51.6357 12.885 51.2134 12.885C50.791 12.885 50.263 12.7972 49.9462 12.7093C49.5239 12.5337 49.2071 12.358 48.8903 12.0945C48.5735 11.8309 48.3623 11.5674 48.1511 11.2161C47.9399 10.8647 47.9399 10.5133 47.9399 10.162C47.9399 9.81063 48.0455 9.37143 48.1511 9.10791C48.2567 8.84439 48.5735 8.49303 48.8903 8.22951C49.2071 7.966 49.5239 7.79032 49.9462 7.61464C50.3686 7.43896 50.791 7.43896 51.2134 7.43896C51.4246 7.43896 51.6357 7.43896 51.8469 7.5268C52.0581 7.5268 52.2693 7.61464 52.4805 7.70248C52.6917 7.79032 52.9029 7.87816 53.0085 7.966C53.2197 8.05383 53.3253 8.14167 53.4308 8.31735V8.40519L52.7973 8.93223V8.84439C52.5861 8.66871 52.3749 8.49303 52.1637 8.40519C51.9525 8.31735 51.6357 8.22951 51.2134 8.22951C50.8966 8.22951 50.5798 8.31735 50.263 8.40519C50.0518 8.49303 49.735 8.66871 49.6295 8.84439C49.4183 9.02007 49.2071 9.19575 49.1015 9.45927C48.9959 9.72279 48.8903 9.98631 48.8903 10.2498C48.8903 10.5133 48.8903 10.8647 49.1015 11.0404C49.2071 11.3039 49.4183 11.4796 49.6295 11.6553C49.8406 11.8309 50.1574 12.0066 50.3686 12.0945C50.5798 12.1823 50.8966 12.2701 51.2134 12.2701C51.5301 12.2701 51.8469 12.1823 52.1637 12.0945C52.4805 12.0066 52.6917 11.8309 52.9029 11.6553C53.0085 11.5674 53.2197 11.3917 53.2197 11.2161C53.3253 11.0404 53.3253 10.9525 53.3253 10.7769H51.0022V9.89847H54.2756V10.3377H54.3812ZM53.9588 11.2161C54.0644 10.9525 54.17 10.6012 54.17 10.2498V9.98631H51.319V10.5133H53.642V10.6012C53.642 10.7769 53.642 11.0404 53.5364 11.2161C53.4308 11.3917 53.3253 11.5674 53.1141 11.7431C52.7973 12.0066 52.5861 12.0945 52.2693 12.2701C51.9525 12.358 51.6357 12.4458 51.319 12.4458C51.0022 12.4458 50.6854 12.358 50.3686 12.2701C50.0518 12.1823 49.8406 12.0066 49.5239 11.8309C49.3127 11.6553 49.1015 11.4796 48.9959 11.2161C48.8903 10.9525 48.7847 10.689 48.7847 10.3377C48.7847 9.98631 48.8903 9.72279 48.9959 9.45927C49.1015 9.19575 49.3127 9.02007 49.5239 8.84439C49.735 8.66871 49.9462 8.49303 50.263 8.40519C50.5798 8.31735 50.8966 8.22951 51.2134 8.22951C51.6357 8.22951 51.9525 8.31735 52.1637 8.40519C52.3749 8.49303 52.6917 8.66871 52.7973 8.84439L53.2197 8.49303C53.1141 8.40519 53.0085 8.31735 52.9029 8.22951C52.7973 8.14167 52.5861 8.05383 52.3749 7.966C52.1637 7.87816 51.9525 7.79032 51.7413 7.79032C51.5301 7.70248 51.319 7.70248 51.1078 7.70248C50.6854 7.70248 50.263 7.79032 49.8406 7.87816C49.5239 7.96599 49.1015 8.22951 48.8903 8.40519C48.5735 8.66871 48.3623 8.93223 48.2567 9.19575C48.1511 9.45927 48.0455 9.81063 48.0455 10.2498C48.0455 10.6012 48.1511 10.9525 48.2567 11.3039C48.3623 11.5674 48.6791 11.9188 48.8903 12.0945C49.2071 12.358 49.5239 12.5337 49.8406 12.6215C50.1574 12.7093 50.5798 12.7972 51.1078 12.7972C51.5302 12.7972 51.9525 12.7093 52.3749 12.6215C52.6917 12.5337 53.1141 12.2701 53.3253 12.0945C53.642 11.7431 53.8532 11.5674 53.9588 11.2161ZM59.0274 8.22951H56.2819V9.72279H58.9218V10.5133H56.2819V12.0066H59.1329V12.885H55.3315C55.3315 11.1282 55.3315 9.28359 55.3315 7.5268H59.1329L59.0274 8.22951ZM56.1763 8.05383H58.9218V7.61464H55.4371V12.6215H58.8162V12.0945H55.9651V10.3377H58.605V9.89847H55.9651L56.1763 8.05383ZM62.4064 12.7972H61.456V8.22951H59.6609V7.43896H64.2015V8.22951H62.4064V12.7972ZM61.6672 12.6215H62.3008V8.05383H64.0959V7.61464H59.9777V8.05383H61.7728V12.6215H61.6672ZM67.1581 12.7093V7.43896H68.2141C68.2141 9.19575 68.2141 11.0404 68.2141 12.7972L67.1581 12.7093ZM67.3693 7.61464V12.6215H68.0029V7.61464H67.3693ZM71.5931 12.7972H70.6427V8.22951H68.8476V7.43896H73.2826V8.22951H71.4875V12.6215V12.7972H71.5931ZM70.8539 12.6215H71.3819V8.05383H73.177V7.61464H69.1644V8.05383H70.9595V12.6215H70.8539ZM81.519 12.0945C81.2022 12.358 80.8854 12.5337 80.463 12.7093C80.0406 12.885 79.6183 12.885 79.1959 12.885C78.7735 12.885 78.2455 12.7972 77.9288 12.7093C77.5064 12.5337 77.1896 12.358 76.8728 12.0945C76.556 11.8309 76.3448 11.5674 76.1336 11.2161C75.9225 10.8647 75.9225 10.5133 75.9225 10.162C75.9225 9.81063 76.028 9.37143 76.1336 9.10791C76.3448 8.75655 76.556 8.49303 76.8728 8.22951C77.1896 7.966 77.5064 7.79032 77.9288 7.61464C78.3511 7.43896 78.7735 7.43896 79.1959 7.43896C79.6183 7.43896 80.1462 7.5268 80.463 7.61464C80.8854 7.79032 81.2022 7.966 81.519 8.22951C81.8357 8.49303 82.0469 8.75655 82.2581 9.10791C82.4693 9.45927 82.4693 9.81063 82.4693 10.162C82.4693 10.5133 82.3637 10.9525 82.2581 11.2161C82.1525 11.5674 81.8357 11.8309 81.519 12.0945ZM80.463 12.5337C80.7798 12.4458 81.2022 12.1823 81.4134 12.0066C81.7301 11.7431 81.9413 11.4796 82.0469 11.2161C82.1525 10.9525 82.2581 10.6012 82.2581 10.162C82.2581 9.72279 82.1525 9.45927 82.0469 9.10791C81.9413 8.84439 81.6246 8.49303 81.4134 8.31735C81.0966 8.05383 80.7798 7.87816 80.463 7.79032C80.1462 7.70248 79.7239 7.61464 79.1959 7.61464C78.7735 7.61464 78.3511 7.70248 77.9288 7.79032C77.612 7.87816 77.1896 8.14167 76.9784 8.31735C76.6616 8.58087 76.4504 8.84439 76.3448 9.10791C76.1336 9.45927 76.028 9.72279 76.028 10.162C76.028 10.5133 76.1336 10.8647 76.2392 11.2161C76.3448 11.4796 76.6616 11.8309 76.8728 12.0066C77.1896 12.2701 77.5064 12.4458 77.8232 12.5337C78.1399 12.6215 78.5623 12.7093 79.0903 12.7093C79.6183 12.7093 80.0406 12.7093 80.463 12.5337ZM77.612 11.5674C77.8232 11.7431 78.0343 11.9188 78.3511 12.0066C78.6679 12.0945 78.8791 12.0945 79.1959 12.0945C79.5127 12.0945 79.8294 12.0066 80.1462 11.9188C80.3574 11.8309 80.6742 11.6553 80.7798 11.4796C80.991 11.3039 81.2022 11.1282 81.3078 10.8647C81.4134 10.6012 81.519 10.3377 81.519 10.0741C81.519 9.81063 81.4134 9.45927 81.3078 9.28359C81.2022 9.02007 80.991 8.84439 80.7798 8.66871C80.5686 8.49303 80.3574 8.31735 80.0406 8.22951C79.8295 8.14167 79.5127 8.05383 79.1959 8.05383C78.8791 8.05383 78.5623 8.14167 78.2455 8.22951C78.0343 8.31735 77.7176 8.49303 77.612 8.66871C77.4008 8.84439 77.1896 9.10791 77.084 9.28359C76.9784 9.54711 76.8728 9.72279 76.8728 10.0741C76.8728 10.3377 76.9784 10.689 77.084 10.8647C77.1896 11.2161 77.4008 11.3917 77.612 11.5674ZM78.2455 12.1823C77.9287 12.0945 77.612 11.9188 77.4008 11.7431C77.1896 11.5674 76.9784 11.3039 76.8728 11.1282C76.7672 10.8647 76.6616 10.6012 76.6616 10.2498C76.6616 9.98631 76.7672 9.63495 76.8728 9.45927C76.9784 9.19575 77.1896 8.93223 77.4008 8.75655C77.612 8.58087 77.8232 8.40519 78.1399 8.31735C78.4567 8.22951 78.7735 8.14167 79.0903 8.14167C79.4071 8.14167 79.7239 8.22951 80.0406 8.31735C80.3574 8.40519 80.6742 8.58087 80.8854 8.75655C81.0966 8.93223 81.3078 9.10791 81.4134 9.37143C81.519 9.63495 81.6246 9.89847 81.6246 10.2498C81.6246 10.5133 81.519 10.8647 81.4134 11.0404C81.3078 11.3039 81.0966 11.5674 80.8854 11.7431C80.6742 11.9188 80.463 12.0945 80.1462 12.1823C79.8294 12.2701 79.5127 12.358 79.1959 12.358C78.8791 12.2701 78.5623 12.2701 78.2455 12.1823ZM83.4197 12.7093V7.43896H84.4756L87.3266 11.3039V7.43896H88.3826C88.3826 9.19575 88.3826 11.0404 88.3826 12.7972H87.4322L84.37 8.75655V12.7972L83.4197 12.7093ZM83.6308 7.61464V12.6215H84.1588V8.22951L87.5378 12.7093H88.1714V7.61464H87.6434V11.9188L84.4756 7.61464H83.6308Z" fill="white"/>
<path d="M75.7111 20.3513C73.1769 20.3513 71.2762 21.9324 71.2762 24.0406C71.2762 26.1487 73.2825 27.7298 75.7111 27.7298C78.2454 27.7298 80.1461 26.1487 80.1461 24.0406C80.2517 21.8446 78.2454 20.3513 75.7111 20.3513ZM75.7111 26.2366C74.3384 26.2366 73.1769 25.2703 73.1769 23.9527C73.1769 22.6351 74.3384 21.6689 75.7111 21.6689C77.0839 21.6689 78.2454 22.5473 78.2454 23.9527C78.2454 25.2703 77.0839 26.2366 75.7111 26.2366ZM66.1021 20.3513C63.5678 20.3513 61.6671 21.9324 61.6671 24.0406C61.6671 26.1487 63.6734 27.7298 66.1021 27.7298C68.6363 27.7298 70.537 26.1487 70.537 24.0406C70.537 21.8446 68.5307 20.3513 66.1021 20.3513ZM66.1021 26.2366C64.7293 26.2366 63.5678 25.2703 63.5678 23.9527C63.5678 22.6351 64.7293 21.6689 66.1021 21.6689C67.4748 21.6689 68.6363 22.5473 68.6363 23.9527C68.5307 25.2703 67.4748 26.2366 66.1021 26.2366ZM54.4867 21.4932V23.0743H58.9216C58.816 23.9527 58.3937 24.6554 57.8657 25.0946C57.2321 25.6217 56.1762 26.2366 54.4867 26.2366C51.7412 26.1487 49.6293 24.3041 49.6293 22.0203C49.6293 19.7364 51.8468 17.8918 54.4867 17.8918C55.965 17.8918 57.1265 18.4188 57.9713 19.0337L59.344 17.8918C58.1825 17.0134 56.7042 16.3107 54.6979 16.3107C51.0021 16.3107 47.7286 18.9459 47.7286 22.0203C47.7286 25.0946 50.8965 27.7298 54.6979 27.7298C56.8098 27.7298 58.1825 27.2028 59.4496 26.0609C60.7167 25.0068 61.1391 23.5135 61.1391 22.4595C61.1391 22.1081 61.1391 21.7567 61.0335 21.4932H54.4867V21.4932ZM101.793 22.723C101.371 21.8446 100.315 20.3513 97.9916 20.3513C95.6685 20.3513 93.8734 21.8446 93.8734 24.0406C93.8734 26.1487 95.7741 27.7298 98.2028 27.7298C100.209 27.7298 101.476 26.6758 101.793 26.0609L100.315 25.1825C99.7867 25.7974 99.1531 26.2366 98.0972 26.2366C97.0412 26.2366 96.4077 25.8852 95.8797 25.0946L101.793 22.9865V22.723ZM95.7741 23.9527C95.7741 22.5473 97.1468 21.7567 98.0972 21.7567C98.8363 21.7567 99.5755 22.1081 99.7867 22.5473L95.7741 23.9527ZM90.8112 27.4663H92.8174V16.662H90.8112V27.4663ZM87.7489 21.1419C87.2209 20.7027 86.3762 20.2635 85.3202 20.2635C83.1028 20.2635 81.0965 21.9324 81.0965 23.9527C81.0965 25.973 83.1028 27.5542 85.3202 27.5542C86.3762 27.5542 87.2209 27.115 87.6433 26.6758H87.7489V27.2028C87.7489 28.6082 86.7986 29.3988 85.3202 29.3988C84.1587 29.3988 83.3139 28.6961 83.1028 28.0812L81.5188 28.7839C82.0468 29.7501 83.314 30.9799 85.4258 30.9799C87.7489 30.9799 89.544 29.838 89.544 27.2028V20.6148H87.6433V21.1419H87.7489ZM85.4258 26.2366C84.0531 26.2366 82.8916 25.2703 82.8916 23.9527C82.8916 22.6351 84.0531 21.6689 85.4258 21.6689C86.7986 21.6689 87.8545 22.6351 87.8545 23.9527C87.8545 25.2703 86.7986 26.2366 85.4258 26.2366ZM110.874 16.662H106.228V27.4663H108.234V23.4257H110.98C113.197 23.4257 115.203 22.1081 115.203 20.0878C115.203 18.0675 112.986 16.662 110.874 16.662ZM110.98 21.8446H108.129V18.1553H110.98C112.458 18.1553 113.303 19.2094 113.303 20C113.092 20.8783 112.247 21.8446 110.98 21.8446ZM122.912 20.2635C121.434 20.2635 119.955 20.7905 119.427 21.9324L121.222 22.5473C121.645 21.9324 122.278 21.7567 123.017 21.7567C124.073 21.7567 125.024 22.2838 125.129 23.1622V23.25C124.813 23.0743 123.968 22.8108 123.123 22.8108C121.222 22.8108 119.427 23.6892 119.427 25.2703C119.427 26.7636 121.011 27.7298 122.701 27.7298C124.073 27.7298 124.707 27.2028 125.235 26.6758H125.341V27.5542H127.241V23.4257C126.819 21.4054 125.024 20.2635 122.912 20.2635ZM122.701 26.2366C122.067 26.2366 121.117 25.973 121.117 25.2703C121.117 24.3919 122.278 24.1284 123.229 24.1284C124.073 24.1284 124.496 24.3041 125.024 24.4798C124.813 25.5338 123.757 26.2366 122.701 26.2366ZM133.577 20.527L131.359 25.1825H131.254L128.931 20.527H126.819L130.198 27.115L128.192 30.7164H130.198L135.478 20.527H133.577ZM116.154 27.4663H118.16V16.662H116.154V27.4663Z" fill="white"/>
<path d="M15.7336 7.96594C15.4168 8.22946 15.3112 8.66866 15.3112 9.1957V28.3447C15.3112 28.8718 15.5224 29.311 15.8392 29.5745L15.9448 29.6623L28.8273 18.9459V18.7702L15.7336 7.96594Z" fill="white"/>
<path d="M33.6847 22.5471L29.4609 19.0335V18.77L33.6847 15.2564L33.7902 15.3443L38.8588 17.8038C40.3371 18.5065 40.3371 19.6484 38.8588 20.3511L33.6847 22.5471Z" fill="white"/>
<path d="M33.4734 22.7229L29.0385 19.1215L16.0504 29.9258C16.5783 30.365 17.3175 30.365 18.2678 30.0136L33.4734 22.7229Z" fill="white"/>
<path d="M33.4734 14.9931L18.2678 7.7903C17.3175 7.35111 16.5783 7.43894 16.0504 7.87814L29.0385 18.5946L33.4734 14.9931Z" fill="white"/>
<path d="M33.0511 22.3716L17.9511 29.3988C17.1063 29.838 16.3671 29.7502 15.8392 29.3988L15.7336 29.4866L15.8392 29.5745C16.3671 29.9258 17.1063 30.0137 17.9511 29.5745L33.0511 22.3716Z" fill="#FEFEFE" fill-opacity="0.2"/>
<path d="M15.7336 29.3986C15.4168 29.1351 15.3112 28.6959 15.3112 28.1689V28.2567C15.3112 28.7838 15.5224 29.223 15.7336 29.3986ZM38.2252 19.912L33.0511 22.3715L33.1567 22.4593L38.2252 19.912C38.9644 19.6485 39.2811 19.2093 39.2811 18.7701C39.2811 19.2093 38.8588 19.5606 38.2252 19.912Z" fill="#FEFEFE" fill-opacity="0.2"/>
</svg>
